<svg width="48" height="70" viewBox="0 0 448 470" fill="none" xmlns="http://www.w3.org/2000/svg">
<path d="M122 218.5C176.5 214 28.0001 8 28.0001 8V0H254C254 0 261.189 114.658 267 131C272.811 147.342 277.341 169.868 300.5 168.5C315.529 167.612 318.596 150.914 328.5 142C351.503 121.297 402.247 112.505 427 133C455.943 156.964 455.607 214.189 420.5 229C388.5 242.5 380.5 229 354 239C345.789 242.098 343.446 251.604 346 260C352.198 280.375 391.8 272.018 405.5 277C417.774 281.463 425.606 284.494 434 294.5C440.793 302.598 443.193 309.32 445.5 319C449.793 337.014 443.407 356.019 434 371C420.5 392.5 400 394 400 394C400 394 381.574 395.731 370.5 392.5C353.63 387.578 334.5 365.5 334.5 365.5C334.5 365.5 317.902 342.627 308.5 350.5C297.128 360.023 323.857 392.759 325.5 407.5C326.582 417.203 327.551 422.955 325.5 432.5C324.007 439.449 322.87 443.538 319 449.5C312.622 459.327 305.946 463.324 295 467.5C273.998 475.513 238.5 456.5 238.5 456.5C238.5 456.5 221.183 444.171 215.5 432.5C210.132 421.475 212.347 400.244 215.5 387L215.617 386.509C218.455 374.607 225.017 347.085 205 348.5C196.473 349.103 185.694 368.933 184 376C179.995 392.71 178.724 404.651 171 420C164.659 432.602 156.836 438.146 144 444C97.2746 465.311 43.41 432.435 57 381C57 381 64.5826 361.159 76.0001 353C86.5202 345.482 95.5001 342 108 342C133.384 342 164.534 315.424 144 300.5C125.329 286.93 116.566 295.567 95.5001 305C84.7778 309.801 79.0985 314.13 67.5001 316C53.8305 318.204 35.7143 316.424 23.5001 309.5C-5.87972 292.844 -7.42257 244.08 20.5001 225C50.5 204.5 67.5001 223 122 218.5Z" fill="#3C807C"/>
</svg>
