<?xml version="1.0" standalone="no"?>
<!DOCTYPE svg PUBLIC "-//W3C//DTD SVG 20010904//EN"
 "http://www.w3.org/TR/2001/REC-SVG-20010904/DTD/svg10.dtd">
<svg version="1.0" xmlns="http://www.w3.org/2000/svg"
 width="1120.000000pt" height="1120.000000pt" viewBox="0 0 1120.000000 1120.000000"
 preserveAspectRatio="xMidYMid meet">
<metadata>
Created by potrace 1.14, written by Peter Selinger 2001-2017
</metadata>
<g transform="translate(0.000000,1120.000000) scale(0.100000,-0.100000)"
fill="#000000" stroke="none">
<path d="M2239 9602 c-2 -65 4 -109 19 -134 9 -16 20 -28 24 -28 4 0 8 -5 8
-11 0 -10 56 -96 71 -109 3 -3 39 -54 80 -115 41 -60 77 -111 82 -113 4 -2 7
-10 7 -17 0 -7 3 -15 8 -17 10 -5 152 -215 152 -227 0 -5 4 -11 8 -13 10 -4
152 -216 152 -228 0 -4 3 -10 8 -12 10 -4 152 -227 152 -239 0 -5 4 -9 8 -9 5
0 15 -12 23 -27 8 -15 31 -54 52 -85 20 -31 37 -62 37 -68 0 -5 4 -10 9 -10 5
0 11 -8 15 -17 3 -10 31 -58 61 -107 30 -49 55 -93 55 -97 0 -5 5 -9 10 -9 6
0 10 -7 10 -15 0 -8 5 -15 10 -15 6 0 10 -4 10 -10 0 -8 95 -177 130 -230 6
-8 15 -26 21 -40 5 -13 14 -27 18 -30 4 -3 22 -34 40 -70 18 -36 40 -73 49
-82 8 -10 12 -18 8 -18 -3 0 4 -17 17 -38 14 -20 33 -55 44 -77 11 -22 42 -83
68 -135 27 -52 48 -98 47 -102 -1 -5 2 -8 8 -8 5 0 10 -4 10 -9 0 -5 19 -49
42 -98 23 -48 42 -90 43 -93 0 -3 6 -15 13 -26 6 -12 8 -24 5 -28 -3 -3 -1 -6
5 -6 7 0 12 -6 12 -13 0 -7 18 -57 40 -110 32 -78 65 -173 75 -217 1 -3 7 -25
14 -50 7 -25 15 -54 17 -65 1 -11 6 -36 10 -55 4 -19 7 -78 7 -130 0 -79 -4
-103 -23 -140 -56 -110 -104 -123 -440 -124 -140 -1 -293 3 -340 8 -47 4 -98
9 -115 11 -70 7 -152 16 -185 21 -91 13 -146 16 -290 19 -85 2 -159 0 -165 -3
-5 -3 -16 -7 -25 -8 -54 -6 -138 -31 -159 -48 -8 -6 -17 -10 -20 -10 -12 3
-52 -16 -128 -62 -74 -45 -194 -154 -239 -219 -28 -40 -95 -165 -89 -165 3 0
-1 -13 -10 -30 -9 -16 -13 -30 -9 -30 4 0 2 -6 -4 -12 -21 -27 -41 -160 -42
-278 0 -92 6 -146 25 -235 32 -142 117 -295 228 -407 20 -21 41 -38 46 -38 5
0 11 -4 13 -9 6 -17 114 -78 183 -104 128 -47 115 -43 170 -52 22 -3 47 -8 55
-11 33 -12 310 -24 310 -14 0 3 19 5 43 6 57 0 109 10 187 33 85 25 89 26 270
114 163 78 298 142 390 185 111 51 237 69 327 48 61 -14 193 -88 244 -137 150
-143 82 -354 -171 -524 -46 -32 -174 -99 -198 -106 -4 -1 -17 -5 -30 -10 -57
-22 -162 -39 -257 -44 -49 -2 -92 -4 -95 -5 -3 -1 -9 -2 -14 -1 -5 1 -33 -3
-62 -9 -30 -6 -55 -11 -56 -10 -2 1 -40 -14 -86 -34 -177 -74 -312 -182 -404
-322 -55 -82 -147 -263 -154 -301 -3 -15 -7 -29 -9 -33 -17 -28 -26 -280 -13
-370 7 -48 32 -142 46 -175 8 -18 22 -45 70 -140 9 -16 18 -32 21 -35 4 -3 22
-25 41 -50 48 -61 65 -78 156 -152 142 -114 331 -191 529 -215 101 -12 270 -7
358 11 15 3 37 8 50 10 12 3 32 7 44 10 29 6 145 49 206 75 26 11 50 20 54 20
3 0 9 3 12 8 3 5 31 22 62 38 63 34 110 67 152 108 16 15 32 27 35 27 4 1 28
30 54 65 64 86 149 256 173 345 1 3 5 14 9 25 18 46 26 75 50 175 33 139 38
161 42 185 2 11 8 40 15 65 6 25 13 55 15 68 23 120 138 327 235 424 58 58
111 84 170 82 101 -2 174 -69 193 -178 8 -40 9 -187 2 -221 -2 -11 -7 -40 -11
-65 -4 -25 -9 -54 -12 -65 -2 -11 -6 -31 -9 -45 -3 -14 -9 -41 -14 -60 -10
-39 -18 -79 -26 -125 -3 -16 -10 -57 -15 -89 -13 -75 -27 -313 -19 -336 1 -3
3 -25 5 -49 9 -102 31 -179 68 -241 45 -77 165 -207 270 -293 22 -18 51 -42
65 -55 30 -25 154 -86 247 -122 33 -12 69 -26 80 -31 58 -25 239 -74 318 -86
54 -9 252 -9 295 0 44 10 175 62 231 93 52 29 138 94 161 121 98 115 163 236
184 339 3 10 9 39 15 64 13 61 23 138 22 180 -3 127 -19 263 -37 315 -7 22
-14 48 -14 58 0 9 -4 17 -10 17 -5 0 -10 7 -10 15 0 8 -47 108 -104 222 -58
115 -105 211 -105 216 0 4 -7 20 -15 35 -50 92 -77 246 -53 301 10 23 54 70
67 72 3 0 16 2 29 5 47 9 148 -35 207 -91 6 -5 22 -19 35 -31 28 -24 76 -78
139 -153 58 -71 276 -280 291 -281 3 0 17 -9 30 -21 72 -63 247 -160 314 -173
17 -4 41 -9 55 -12 77 -16 298 -22 422 -11 77 7 193 44 264 83 102 57 90 48
187 136 95 86 218 277 277 433 13 31 23 60 25 65 53 168 60 215 59 385 0 110
-5 145 -28 230 -15 55 -34 115 -42 133 -8 17 -21 49 -30 70 -48 108 -170 247
-299 340 -32 22 -190 92 -270 120 -107 36 -123 38 -355 47 -232 9 -348 20
-415 39 -5 2 -23 7 -40 11 -134 36 -228 126 -252 239 -8 40 -10 138 -3 151 2
6 5 12 5 15 7 43 58 112 105 141 56 35 203 74 314 84 38 3 71 7 74 9 2 3 15 1
28 -4 16 -6 24 -6 24 1 0 6 7 6 18 1 20 -10 328 -8 392 2 25 4 70 14 100 22
30 8 63 17 73 19 68 15 277 111 277 127 0 4 4 8 10 8 16 0 75 55 145 134 23
27 55 76 55 86 0 5 5 10 10 10 6 0 10 9 10 20 0 11 4 20 9 20 5 0 11 8 14 18
3 9 19 54 35 100 17 45 29 82 27 82 -2 0 1 15 6 33 30 103 30 379 -1 486 -5
17 -9 35 -10 39 -6 53 -59 193 -102 272 -68 123 -176 243 -283 314 -55 37
-215 111 -215 100 0 -2 -8 0 -19 5 -22 12 -77 24 -186 38 -67 9 -285 9 -360 0
-114 -14 -137 -17 -144 -22 -4 -2 -23 -7 -42 -10 -19 -3 -59 -13 -89 -21 -30
-9 -59 -17 -65 -18 -39 -7 -292 -117 -320 -139 -5 -4 -39 -26 -75 -50 -79 -51
-190 -161 -214 -210 -9 -21 -21 -37 -25 -37 -5 0 -14 -13 -20 -28 -6 -15 -23
-41 -36 -56 -14 -16 -25 -32 -25 -36 0 -18 -111 -118 -156 -140 -43 -22 -62
-25 -154 -25 -97 1 -110 3 -171 33 -65 31 -169 123 -169 150 0 6 -4 12 -8 12
-9 0 -72 122 -72 138 0 5 -7 15 -15 22 -8 6 -14 15 -13 18 2 12 -15 67 -25 80
-5 6 -6 12 -2 12 4 0 2 7 -5 15 -7 8 -9 15 -5 15 4 0 2 7 -5 15 -7 8 -10 15
-6 15 3 0 -4 24 -15 53 -12 28 -23 63 -26 76 -2 14 -6 28 -8 31 -4 7 -15 56
-20 95 -2 11 -4 20 -5 20 -1 0 -3 20 -5 45 -2 25 -7 56 -10 70 -3 14 -8 49
-10 79 -3 30 -7 61 -9 70 -3 9 -8 50 -11 91 -4 41 -9 89 -11 105 -6 46 -14
124 -19 185 -2 30 -4 55 -5 55 -1 0 -3 25 -16 175 -3 41 -7 93 -9 115 -2 22
-7 78 -11 125 -3 47 -7 101 -9 120 -6 79 -17 218 -20 255 -1 22 -6 90 -10 150
-4 61 -9 124 -10 140 -1 17 -6 80 -10 140 -4 61 -8 121 -9 135 l-3 25 -1936 2
-1937 2 -1 -27z"/>
</g>
</svg>
